# xmcd
#
# Track frame offsets: 
# 150
# 21657
# 44357
# 66652
# 92757
# 116902
# 136942
# 158875
# 179802
# 203620
# 230422
#
# Disc length: 3458 seconds
# Submitted via: tkcNetwork 1.0
# Revision: 0
# Processed by: cddbd v1.5.2PL0 Copyright (c) Steve Scherf et al.
#
DISCID=a50d800b
DTITLE=Steve Winwood - Junction Seven
DYEAR=1997
DGENRE=Rock
TTITLE0=Spy in the House of Love
TTITLE1=Angel of Mercy
TTITLE2=Just want to Have Some Fun
TTITLE3=Let Your Love Come Down
TTITLE4=Real Love
TTITLE5=Fill Me Up
TTITLE6=Gotta get Back to My Baby
TTITLE7=Someone Like You
TTITLE8=Family Affair
TTITLE9=Plenty Lovin'
TTITLE10=Lord of the Street
EXTD=
EXTT0=
EXTT1=
EXTT2=
EXTT3=
EXTT4=
EXTT5=
EXTT6=
EXTT7=
EXTT8=
EXTT9=
EXTT10=
PLAYORDER=
